<svg xmlns="http://www.w3.org/2000/svg" xmlns:xlink="http://www.w3.org/1999/xlink" xmlns:sketch="http://www.bohemiancoding.com/sketch/ns" viewBox="0 0 32 40" version="1.1" x="0px" y="0px"><title>laptop_080-sad-face-avatar-emoticon</title><desc>Created with Sketch.</desc><g stroke="none" stroke-width="1" fill="none" fill-rule="evenodd" sketch:type="MSPage"><path d="M20.5,14.5 C21.3284271,14.5 22,13.7164983 22,12.75 C22,11.7835017 21.3284271,11 20.5,11 C19.6715729,11 19,11.7835017 19,12.75 C19,13.7164983 19.6715729,14.5 20.5,14.5 Z M11.389528,12.496219 L10.2763932,13.0527864 C10.029404,13.176281 9.92929178,13.4766175 10.0527864,13.7236068 C10.176281,13.970596 10.4766175,14.0707082 10.7236068,13.9472136 L12.7236068,12.9472136 C13.0921311,12.7629515 13.0921311,12.2370485 12.7236068,12.0527864 L10.7236068,11.0527864 C10.4766175,10.9292918 10.176281,11.029404 10.0527864,11.2763932 C9.92929178,11.5233825 10.029404,11.823719 10.2763932,11.9472136 L11.389528,12.496219 Z M14.4246316,18.7639848 C14.4725953,18.6868331 14.5938453,18.5444206 14.7863941,18.3975309 C15.1127054,18.1485979 15.512309,18 16,18 C16.487691,18 16.8872946,18.1485979 17.2136059,18.3975309 C17.4061547,18.5444206 17.5274047,18.6868331 17.5753684,18.7639848 C17.7211632,18.9985024 18.0294673,19.0704264 18.2639848,18.9246316 C18.4985024,18.7788368 18.5704264,18.4705327 18.4246316,18.2360152 C18.3171754,18.0631669 18.1191505,17.8305794 17.8201344,17.6024691 C17.3271707,17.2264021 16.7183393,17 16,17 C15.2816607,17 14.6728293,17.2264021 14.1798656,17.6024691 C13.8808495,17.8305794 13.6828246,18.0631669 13.5753684,18.2360152 C13.4295736,18.4705327 13.5014976,18.7788368 13.7360152,18.9246316 C13.9705327,19.0704264 14.2788368,18.9985024 14.4246316,18.7639848 Z" fill="#000000" sketch:type="MSShapeGroup"/><g sketch:type="MSLayerGroup" transform="translate(-432.000000, -331.000000)" fill="#000000"><path d="M434,354 L434,337.493433 C434,336.668633 434.668655,336 435.508264,336 L460.491736,336 C461.324727,336 462,336.674923 462,337.493433 L462,354 L463.504324,354 C463.778078,354 464,354.215753 464,354.495389 L464,355.5 C464,356.328427 463.331345,357 462.491736,357 L433.508264,357 C432.675273,357 432,356.334203 432,355.5 L432,354.495389 C432,354.221793 432.224229,354 432.495676,354 L434,354 Z M461,354 L461,337.508204 C461,337.226615 460.771712,337 460.490106,337 L435.509894,337 C435.225384,337 435,337.227531 435,337.508204 L435,354 L461,354 Z M459.503832,338 C459.777858,338 460,338.214943 460,338.490443 L460,352.509557 C460,352.780421 459.775229,353 459.503832,353 L436.496168,353 C436.222142,353 436,352.785057 436,352.509557 L436,338.490443 C436,338.219579 436.224771,338 436.496168,338 L459.503832,338 Z M459,352 L437,352 L437,339 L459,339 L459,352 Z M433,355.5 L433,355 L463,355 L463,355.5 C463,355.776142 462.774616,356 462.490106,356 L433.509894,356 C433.228288,356 433,355.768066 433,355.5 Z" sketch:type="MSShapeGroup"/></g></g><text x="0" y="47" fill="#000000" font-size="5px" font-weight="bold" font-family="'Helvetica Neue', Helvetica, Arial-Unicode, Arial, Sans-serif">Created by Pham Thi Dieu Linh</text><text x="0" y="52" fill="#000000" font-size="5px" font-weight="bold" font-family="'Helvetica Neue', Helvetica, Arial-Unicode, Arial, Sans-serif">from the Noun Project</text></svg>